<svg width="64" height="64" viewBox="0 0 64 64" fill="none" xmlns="http://www.w3.org/2000/svg">
  <!-- Background Circle -->
  <circle cx="32" cy="32" r="30" fill="#10B981" />
  <circle cx="32" cy="32" r="26" fill="#34D399" />
  
  <!-- Face -->
  <circle cx="32" cy="32" r="22" fill="white" />
  
  <!-- Eyes -->
  <circle cx="24" cy="28" r="3" fill="#374151" />
  <circle cx="40" cy="28" r="3" fill="#374151" />
  
  <!-- Smile -->
  <path d="M24 38C24 38 28 44 32 44C36 44 40 38 40 38" stroke="#374151" stroke-width="2" stroke-linecap="round" />
  
  <!-- Leaf -->
  <path d="M32 10C32 10 22 16 22 28C22 40 32 46 32 46" stroke="#10B981" stroke-width="4" stroke-linecap="round" />
  <path d="M32 10C32 10 42 16 42 28C42 40 32 46 32 46" stroke="#10B981" stroke-width="4" stroke-linecap="round" />
  
  <!-- Small Leaves -->
  <path d="M22 28C22 28 18 24 18 21C18 18 22 16 22 16" stroke="#10B981" stroke-width="2" stroke-linecap="round" />
  <path d="M42 28C42 28 46 24 46 21C46 18 42 16 42 16" stroke="#10B981" stroke-width="2" stroke-linecap="round" />
  
  <!-- Additional decoration -->
  <circle cx="32" cy="10" r="2" fill="#059669" />
  <circle cx="18" cy="21" r="1.5" fill="#059669" />
  <circle cx="46" cy="21" r="1.5" fill="#059669" />
</svg> 